<svg xmlns="http://www.w3.org/2000/svg" viewBox="0 0 1920 1080" preserveAspectRatio="xMidYMid slice">
  <defs>
    <linearGradient id="bg" x1="0" y1="0" x2="1" y2="1">
      <stop offset="0%" stop-color="#0b1120" />
      <stop offset="45%" stop-color="#111a2e" />
      <stop offset="100%" stop-color="#0e1628" />
    </linearGradient>

    <radialGradient id="glowA" cx="18%" cy="18%" r="44%">
      <stop offset="0%" stop-color="#22d3ee" stop-opacity="0.38" />
      <stop offset="100%" stop-color="#22d3ee" stop-opacity="0" />
    </radialGradient>
    <radialGradient id="glowB" cx="82%" cy="22%" r="38%">
      <stop offset="0%" stop-color="#818cf8" stop-opacity="0.35" />
      <stop offset="100%" stop-color="#818cf8" stop-opacity="0" />
    </radialGradient>
    <radialGradient id="glowC" cx="50%" cy="88%" r="42%">
      <stop offset="0%" stop-color="#34d399" stop-opacity="0.20" />
      <stop offset="100%" stop-color="#34d399" stop-opacity="0" />
    </radialGradient>
  </defs>

  <rect width="1920" height="1080" fill="url(#bg)" />
  <rect width="1920" height="1080" fill="url(#glowA)" />
  <rect width="1920" height="1080" fill="url(#glowB)" />
  <rect width="1920" height="1080" fill="url(#glowC)" />

  <!-- grid -->
  <g stroke="#cbd5e1" stroke-opacity="0.09" stroke-width="1">
    <path d="M0 120 H1920" />
    <path d="M0 240 H1920" />
    <path d="M0 360 H1920" />
    <path d="M0 480 H1920" />
    <path d="M0 600 H1920" />
    <path d="M0 720 H1920" />
    <path d="M0 840 H1920" />
    <path d="M0 960 H1920" />
    <path d="M160 0 V1080" />
    <path d="M320 0 V1080" />
    <path d="M480 0 V1080" />
    <path d="M640 0 V1080" />
    <path d="M800 0 V1080" />
    <path d="M960 0 V1080" />
    <path d="M1120 0 V1080" />
    <path d="M1280 0 V1080" />
    <path d="M1440 0 V1080" />
    <path d="M1600 0 V1080" />
    <path d="M1760 0 V1080" />
  </g>

  <!-- calendar panel motif -->
  <g transform="translate(1260,120)" opacity="0.20">
    <rect x="0" y="0" rx="20" ry="20" width="520" height="360" fill="#0f172a" stroke="#38bdf8" stroke-opacity="0.45"/>
    <rect x="0" y="0" rx="20" ry="20" width="520" height="72" fill="#0369a1" fill-opacity="0.40"/>
    <circle cx="42" cy="36" r="8" fill="#67e8f9"/>
    <circle cx="74" cy="36" r="8" fill="#67e8f9"/>
    <g fill="#bae6fd" fill-opacity="0.42">
      <rect x="34" y="108" width="66" height="48" rx="8"/>
      <rect x="120" y="108" width="66" height="48" rx="8"/>
      <rect x="206" y="108" width="66" height="48" rx="8"/>
      <rect x="292" y="108" width="66" height="48" rx="8"/>
      <rect x="378" y="108" width="66" height="48" rx="8"/>
      <rect x="34" y="174" width="66" height="48" rx="8"/>
      <rect x="120" y="174" width="66" height="48" rx="8"/>
      <rect x="206" y="174" width="66" height="48" rx="8"/>
      <rect x="292" y="174" width="66" height="48" rx="8"/>
      <rect x="378" y="174" width="66" height="48" rx="8"/>
      <rect x="34" y="240" width="66" height="48" rx="8"/>
      <rect x="120" y="240" width="66" height="48" rx="8"/>
      <rect x="206" y="240" width="66" height="48" rx="8"/>
      <rect x="292" y="240" width="66" height="48" rx="8"/>
      <rect x="378" y="240" width="66" height="48" rx="8"/>
    </g>
  </g>

  <!-- clinic card motif -->
  <g transform="translate(140,140)" opacity="0.18">
    <rect x="0" y="0" rx="22" ry="22" width="460" height="280" fill="#0f172a" stroke="#34d399" stroke-opacity="0.55"/>
    <circle cx="82" cy="78" r="34" fill="#22c55e" fill-opacity="0.42"/>
    <rect x="132" y="52" width="230" height="16" rx="8" fill="#a7f3d0" fill-opacity="0.45"/>
    <rect x="132" y="84" width="180" height="12" rx="6" fill="#a7f3d0" fill-opacity="0.30"/>
    <rect x="42" y="146" width="376" height="14" rx="7" fill="#dcfce7" fill-opacity="0.25"/>
    <rect x="42" y="174" width="338" height="14" rx="7" fill="#dcfce7" fill-opacity="0.20"/>
    <rect x="42" y="202" width="296" height="14" rx="7" fill="#dcfce7" fill-opacity="0.16"/>
  </g>

  <!-- plus and pulse icons -->
  <g stroke="#67e8f9" stroke-opacity="0.28" stroke-width="4" fill="none">
    <path d="M930 840 h34 M947 823 v34" />
    <path d="M1020 790 h22 M1031 779 v22" />
    <path d="M860 892 h22 M871 881 v22" />
  </g>
  <path d="M670 930 L730 930 L760 890 L790 975 L830 860 L862 930 L920 930" stroke="#5eead4" stroke-opacity="0.25" stroke-width="5" fill="none"/>
</svg>
